<svg width="1085" height="243" viewBox="0 0 1085 243" fill="none" xmlns="http://www.w3.org/2000/svg">
<path fill-rule="evenodd" clip-rule="evenodd" d="M84.0931 178.354C52.4682 178.354 26.8311 152.717 26.8311 121.092C26.8311 89.4674 52.4682 63.8303 84.0931 63.8303C115.718 63.8303 141.355 89.4674 141.355 121.092C141.355 152.717 115.718 178.354 84.0931 178.354Z" fill="white"/>
<path fill-rule="evenodd" clip-rule="evenodd" d="M33.1914 121C33.1914 149.062 55.9397 171.81 84.0012 171.81C112.063 171.81 134.811 149.062 134.811 121C134.811 92.9387 112.063 70.1903 84.0012 70.1903C55.9397 70.1903 33.1914 92.9387 33.1914 121ZM0.0220292 121C0.0220272 167.381 37.6208 204.979 84.0012 204.979C130.382 204.979 167.98 167.381 167.98 121C167.98 74.6198 130.382 37.021 84.0013 37.021C37.6208 37.021 0.0220313 74.6198 0.0220292 121Z" fill="url(#paint0_radial_1172_279)"/>
<path fill-rule="evenodd" clip-rule="evenodd" d="M6.55449 153.502C20.9325 187.883 56.5273 208.692 93.4666 204.455C81.9502 196.452 25.4135 139.376 79.0003 114.79C137.628 87.8915 133.964 56.996 119.968 45.1112C102.589 36.8641 82.3018 34.5134 62.2647 39.8824C46.07 44.2217 32.2553 53.0098 21.7833 64.5795C11.7836 75.881 4.81548 89.648 1.72013 104.1C-0.188205 113.355 -0.550479 123.037 0.843286 132.785C1.32469 135.812 1.78365 138.845 2.65356 141.816C3.53808 145.943 5.02741 149.749 6.55449 153.502Z" fill="url(#paint1_linear_1172_279)"/>
<path fill-rule="evenodd" clip-rule="evenodd" d="M119.147 44.7279C131.534 53.1047 162.066 77.8582 109.986 107.728C52.9282 140.452 100.696 191.167 132.711 189.437C160.456 169.683 174.45 134.096 165.117 99.265C158.397 74.1878 141.011 54.8175 119.147 44.7279Z" fill="url(#paint2_linear_1172_279)"/>
<path d="M226.396 185V54.401H251.583V165.41H308.86V185H226.396ZM322.097 185V92.4613H347.284V185H322.097ZM334.784 80.7074C330.182 80.7074 326.388 79.4014 323.403 76.7894C320.543 74.053 319.112 70.6326 319.112 66.528C319.112 62.4235 320.543 59.003 323.403 56.2667C326.388 53.5303 330.182 52.1622 334.784 52.1622C339.386 52.1622 343.118 53.5303 345.978 56.2667C348.839 59.003 350.269 62.4235 350.269 66.528C350.269 70.5082 348.839 73.8665 345.978 76.6028C343.118 79.3392 339.386 80.7074 334.784 80.7074ZM437.97 222.314V173.06C434.861 176.915 430.632 180.274 425.284 183.134C420.06 185.871 413.841 187.239 406.627 187.239C397.547 187.239 389.711 185.187 383.119 181.082C376.527 176.853 371.427 171.069 367.82 163.731C364.213 156.393 362.41 148.059 362.41 138.731C362.41 129.402 364.213 121.069 367.82 113.73C371.427 106.392 376.464 100.67 382.932 96.5658C389.4 92.3369 396.987 90.2224 405.694 90.2224C410.918 90.2224 415.644 90.9687 419.873 92.4613C424.102 93.9538 427.896 96.0683 431.254 98.8047C434.612 101.541 437.473 104.837 439.836 108.693H440.582L441.888 92.4613H463.157V222.314H437.97ZM413.157 166.716C418.256 166.716 422.672 165.535 426.403 163.171C430.259 160.808 433.182 157.574 435.172 153.47C437.286 149.241 438.344 144.328 438.344 138.731C438.344 133.258 437.286 128.469 435.172 124.365C433.182 120.136 430.259 116.84 426.403 114.477C422.547 112.113 418.07 110.932 412.97 110.932C407.995 110.932 403.579 112.113 399.724 114.477C395.992 116.84 393.069 120.136 390.955 124.365C388.965 128.594 387.97 133.382 387.97 138.731C387.97 144.328 388.965 149.241 390.955 153.47C393.069 157.574 395.992 160.808 399.724 163.171C403.579 165.535 408.057 166.716 413.157 166.716ZM514.157 187.239C506.569 187.239 500.102 185.622 494.753 182.388C489.405 179.154 485.3 174.366 482.44 168.022C479.579 161.554 478.149 153.656 478.149 144.328V92.4613H503.149V142.089C503.149 149.8 504.704 155.709 507.813 159.813C511.047 163.918 516.022 165.97 522.739 165.97C527.092 165.97 530.886 164.975 534.12 162.985C537.478 160.87 540.09 157.885 541.956 154.029C543.821 150.174 544.754 145.572 544.754 140.223V92.4613H569.941V185H548.485L546.247 170.261H545.5C542.64 175.485 538.597 179.652 533.373 182.761C528.274 185.746 521.868 187.239 514.157 187.239ZM587.923 185V92.4613H613.11V185H587.923ZM600.61 80.7074C596.008 80.7074 592.214 79.4014 589.229 76.7894C586.368 74.053 584.938 70.6326 584.938 66.528C584.938 62.4235 586.368 59.003 589.229 56.2667C592.214 53.5303 596.008 52.1622 600.61 52.1622C605.212 52.1622 608.943 53.5303 611.804 56.2667C614.665 59.003 616.095 62.4235 616.095 66.528C616.095 70.5082 614.665 73.8665 611.804 76.6028C608.943 79.3392 605.212 80.7074 600.61 80.7074ZM671.52 187.239C662.813 187.239 655.226 185.187 648.758 181.082C642.29 176.853 637.253 171.069 633.646 163.731C630.039 156.393 628.235 148.059 628.235 138.731C628.235 129.402 630.039 121.069 633.646 113.73C637.253 106.392 642.353 100.67 648.945 96.5658C655.537 92.3369 663.373 90.2224 672.452 90.2224C679.667 90.2224 685.886 91.6528 691.109 94.5135C696.458 97.2499 700.687 100.546 703.796 104.402V54.401H728.983V185H707.714L706.408 168.768H705.662C703.299 172.624 700.438 175.92 697.08 178.657C693.721 181.393 689.928 183.507 685.699 185C681.47 186.493 676.744 187.239 671.52 187.239ZM678.982 166.53C684.082 166.53 688.498 165.348 692.229 162.985C696.085 160.622 699.008 157.388 700.998 153.283C703.112 149.054 704.169 144.141 704.169 138.544C704.169 133.071 703.112 128.283 700.998 124.178C699.008 119.949 696.085 116.653 692.229 114.29C688.373 111.927 683.895 110.745 678.796 110.745C673.821 110.745 669.405 111.927 665.549 114.29C661.818 116.653 658.895 119.949 656.781 124.178C654.791 128.283 653.795 133.071 653.795 138.544C653.795 144.141 654.791 149.054 656.781 153.283C658.895 157.388 661.818 160.622 665.549 162.985C669.405 165.348 673.883 166.53 678.982 166.53ZM809.46 187.239C796.525 187.239 785.144 184.378 775.318 178.657C765.617 172.935 757.967 165.037 752.37 154.962C746.773 144.763 743.974 133.009 743.974 119.7C743.974 106.392 746.773 94.7001 752.37 84.6253C757.967 74.4262 765.617 66.4659 775.318 60.7444C785.144 55.0229 796.525 52.1622 809.46 52.1622C822.52 52.1622 833.963 55.0229 843.789 60.7444C853.74 66.4659 861.451 74.4262 866.924 84.6253C872.397 94.7001 875.133 106.392 875.133 119.7C875.133 133.009 872.397 144.763 866.924 154.962C861.451 165.037 853.74 172.935 843.789 178.657C833.963 184.378 822.52 187.239 809.46 187.239ZM809.46 164.664C817.67 164.664 824.759 162.86 830.729 159.253C836.7 155.522 841.302 150.298 844.536 143.581C847.77 136.865 849.386 128.905 849.386 119.7C849.386 110.372 847.77 102.412 844.536 95.8195C841.302 89.103 836.7 83.9412 830.729 80.3342C824.759 76.7272 817.67 74.9237 809.46 74.9237C801.5 74.9237 794.535 76.7272 788.565 80.3342C782.594 83.9412 777.93 89.103 774.572 95.8195C771.338 102.412 769.721 110.372 769.721 119.7C769.721 128.905 771.338 136.865 774.572 143.581C777.93 150.298 782.594 155.522 788.565 159.253C794.535 162.86 801.5 164.664 809.46 164.664ZM890.14 222.314V92.4613H911.223L912.715 108.693H913.462C915.825 104.837 918.623 101.541 921.857 98.8047C925.216 96.0683 929.009 93.9538 933.238 92.4613C937.591 90.9687 942.318 90.2224 947.417 90.2224C956.248 90.2224 963.898 92.3369 970.365 96.5658C976.833 100.67 981.871 106.392 985.478 113.73C989.085 121.069 990.888 129.402 990.888 138.731C990.888 148.059 989.085 156.393 985.478 163.731C981.871 171.069 976.771 176.853 970.179 181.082C963.587 185.187 955.751 187.239 946.671 187.239C939.457 187.239 933.176 185.871 927.827 183.134C922.604 180.274 918.437 176.915 915.327 173.06V222.314H890.14ZM940.141 166.716C945.241 166.716 949.656 165.535 953.388 163.171C957.243 160.808 960.166 157.574 962.156 153.47C964.271 149.241 965.328 144.39 965.328 138.917C965.328 133.32 964.271 128.469 962.156 124.365C960.166 120.136 957.243 116.84 953.388 114.477C949.656 112.113 945.241 110.932 940.141 110.932C935.166 110.932 930.75 112.113 926.895 114.477C923.039 116.84 920.054 120.136 917.939 124.365C915.825 128.469 914.768 133.32 914.768 138.917C914.768 144.39 915.825 149.241 917.939 153.47C920.054 157.574 923.039 160.808 926.895 163.171C930.75 165.535 935.166 166.716 940.141 166.716ZM1041.89 187.239C1033.68 187.239 1026.4 185.871 1020.06 183.134C1013.84 180.398 1008.8 176.667 1004.95 171.94C1001.22 167.089 999.038 161.617 998.417 155.522H1023.6C1024.1 157.761 1025.1 159.875 1026.59 161.865C1028.08 163.855 1030.07 165.472 1032.56 166.716C1035.17 167.836 1038.16 168.395 1041.51 168.395C1045 168.395 1047.8 167.96 1049.91 167.089C1052.02 166.094 1053.58 164.85 1054.57 163.358C1055.69 161.865 1056.25 160.248 1056.25 158.507C1056.25 156.144 1055.44 154.34 1053.83 153.097C1052.34 151.728 1050.1 150.547 1047.11 149.552C1044.25 148.557 1040.83 147.499 1036.85 146.38C1032.75 145.261 1028.58 144.079 1024.35 142.835C1020.25 141.591 1016.45 140.037 1012.97 138.171C1009.49 136.181 1006.69 133.693 1004.57 130.708C1002.58 127.599 1001.59 123.743 1001.59 119.141C1001.59 113.792 1003.08 108.942 1006.07 104.588C1009.05 100.235 1013.34 96.7524 1018.94 94.1404C1024.66 91.5284 1031.44 90.2224 1039.28 90.2224C1050.47 90.2224 1059.36 92.7722 1065.95 97.8718C1072.67 102.971 1076.59 109.999 1077.71 118.954H1054.01C1053.39 115.845 1051.78 113.419 1049.16 111.678C1046.68 109.937 1043.38 109.066 1039.28 109.066C1034.92 109.066 1031.56 109.937 1029.2 111.678C1026.96 113.295 1025.84 115.285 1025.84 117.648C1025.84 119.39 1026.59 120.882 1028.08 122.126C1029.57 123.245 1031.75 124.303 1034.61 125.298C1037.6 126.168 1041.14 127.163 1045.25 128.283C1051.84 130.024 1057.87 131.89 1063.34 133.88C1068.82 135.87 1073.17 138.606 1076.4 142.089C1079.64 145.447 1081.25 150.236 1081.25 156.455C1081.38 162.425 1079.82 167.711 1076.59 172.313C1073.36 176.915 1068.82 180.585 1062.97 183.321C1057.12 185.933 1050.1 187.239 1041.89 187.239Z" fill="#F5F5FE"/>
<defs>
<radialGradient id="paint0_radial_1172_279" cx="0" cy="0" r="1" gradientUnits="userSpaceOnUse" gradientTransform="translate(84.0012 121) rotate(-29.6192) scale(109.43 104.783)">
<stop offset="0.5" stop-color="#B6B5FF"/>
<stop offset="1" stop-color="#DCDCFF"/>
</radialGradient>
<linearGradient id="paint1_linear_1172_279" x1="64.3216" y1="37" x2="64.3216" y2="205" gradientUnits="userSpaceOnUse">
<stop stop-color="#6D6AFF"/>
<stop offset="0.5" stop-color="#4844EC"/>
<stop offset="1" stop-color="#191994"/>
</linearGradient>
<linearGradient id="paint2_linear_1172_279" x1="215.335" y1="134.363" x2="36.0642" y2="134.363" gradientUnits="userSpaceOnUse">
<stop stop-color="#4844EC"/>
<stop offset="1" stop-color="#6D6AFF"/>
</linearGradient>
</defs>
</svg>
