<svg width="386" height="76" viewBox="0 0 386 76" fill="none" xmlns="http://www.w3.org/2000/svg">
<path fill-rule="evenodd" clip-rule="evenodd" d="M35.0001 59.1709C23.3078 59.1709 13.8293 49.6924 13.8293 38.0001C13.8293 26.3078 23.3078 16.8293 35.0001 16.8293C46.6924 16.8293 56.1709 26.3078 56.1709 38.0001C56.1709 49.6924 46.6924 59.1709 35.0001 59.1709Z" fill="white"/>
<path fill-rule="evenodd" clip-rule="evenodd" d="M13.8291 38.0001C13.8291 49.6924 23.3076 59.1709 34.9999 59.1709C46.6922 59.1709 56.1707 49.6924 56.1707 38.0001C56.1707 26.3078 46.6922 16.8293 34.9999 16.8293C23.3076 16.8293 13.8291 26.3078 13.8291 38.0001ZM0.00854492 38.0001C0.00854408 57.3253 15.6747 72.9914 34.9999 72.9914C54.3251 72.9914 69.9912 57.3253 69.9912 38.0001C69.9912 18.6749 54.3251 3.00876 34.9999 3.00876C15.6747 3.00876 0.00854577 18.6749 0.00854492 38.0001Z" fill="url(#paint0_radial_3257_142)"/>
<path fill-rule="evenodd" clip-rule="evenodd" d="M2.73103 51.5424C8.72188 65.868 23.553 74.5384 38.9444 72.773C34.1459 69.4383 10.589 45.6566 32.9168 35.4126C57.3452 24.2048 55.8182 11.3317 49.9866 6.37969C42.7453 2.94337 34.2924 1.96393 25.9436 4.20098C19.1958 6.00905 13.4397 9.67076 9.07635 14.4915C4.90983 19.2004 2.00645 24.9367 0.716719 30.9585C-0.078419 34.8145 -0.229366 38.8489 0.351369 42.9102C0.551952 44.1718 0.831907 45.4249 1.19437 46.6628C1.57652 48.3496 2.09475 49.9786 2.73103 51.5424Z" fill="url(#paint1_linear_3257_142)"/>
<path fill-rule="evenodd" clip-rule="evenodd" d="M49.6448 6.21994C54.806 9.71026 67.5279 20.0242 45.8277 32.4699C22.0537 46.105 41.9571 67.2362 55.2964 66.5152C66.8568 58.2844 72.6877 43.4568 68.7989 28.9437C65.9992 18.4949 58.7547 10.4239 49.6448 6.21994Z" fill="url(#paint2_linear_3257_142)"/>
<path d="M94.9761 57.5V18.3H101.696V52.236H119.168V57.5H94.9761ZM125.766 57.5V29.276H132.486V57.5H125.766ZM129.126 24.796C127.894 24.796 126.868 24.4227 126.046 23.676C125.262 22.892 124.87 21.94 124.87 20.82C124.87 19.6627 125.262 18.7293 126.046 18.02C126.868 17.2733 127.894 16.9 129.126 16.9C130.358 16.9 131.366 17.2733 132.15 18.02C132.972 18.7293 133.382 19.6627 133.382 20.82C133.382 21.94 132.972 22.892 132.15 23.676C131.366 24.4227 130.358 24.796 129.126 24.796ZM162.26 69.82V53.412C161.364 54.756 160.132 55.8947 158.564 56.828C157.033 57.724 155.148 58.172 152.908 58.172C150.257 58.172 147.905 57.5373 145.852 56.268C143.799 54.9613 142.193 53.2067 141.036 51.004C139.879 48.764 139.3 46.2253 139.3 43.388C139.3 40.5507 139.879 38.0307 141.036 35.828C142.193 33.588 143.799 31.8333 145.852 30.564C147.943 29.2573 150.295 28.604 152.908 28.604C154.364 28.604 155.671 28.8093 156.828 29.22C158.023 29.5933 159.068 30.1347 159.964 30.844C160.86 31.516 161.625 32.3187 162.26 33.252L162.932 29.276H168.98V69.82H162.26ZM154.196 52.348C155.801 52.348 157.22 51.9747 158.452 51.228C159.684 50.444 160.636 49.38 161.308 48.036C161.98 46.692 162.316 45.1427 162.316 43.388C162.316 41.596 161.98 40.0467 161.308 38.74C160.636 37.396 159.684 36.3507 158.452 35.604C157.22 34.8573 155.801 34.484 154.196 34.484C152.665 34.484 151.284 34.8573 150.052 35.604C148.82 36.3507 147.849 37.396 147.14 38.74C146.468 40.084 146.132 41.6333 146.132 43.388C146.132 45.1427 146.468 46.692 147.14 48.036C147.849 49.38 148.82 50.444 150.052 51.228C151.284 51.9747 152.665 52.348 154.196 52.348ZM186.927 58.172C184.65 58.172 182.69 57.724 181.047 56.828C179.442 55.8947 178.21 54.5133 177.351 52.684C176.492 50.8173 176.063 48.5213 176.063 45.796V29.276H182.783V45.124C182.783 47.5507 183.287 49.3987 184.295 50.668C185.34 51.9 186.908 52.516 188.999 52.516C190.343 52.516 191.538 52.1987 192.583 51.564C193.666 50.9293 194.506 50.0147 195.103 48.82C195.738 47.588 196.055 46.0947 196.055 44.34V29.276H202.775V57.5H196.839L196.335 52.796C195.476 54.4387 194.226 55.7453 192.583 56.716C190.978 57.6867 189.092 58.172 186.927 58.172ZM210.532 57.5V29.276H217.252V57.5H210.532ZM213.892 24.796C212.66 24.796 211.633 24.4227 210.812 23.676C210.028 22.892 209.636 21.94 209.636 20.82C209.636 19.6627 210.028 18.7293 210.812 18.02C211.633 17.2733 212.66 16.9 213.892 16.9C215.124 16.9 216.132 17.2733 216.916 18.02C217.737 18.7293 218.148 19.6627 218.148 20.82C218.148 21.94 217.737 22.892 216.916 23.676C216.132 24.4227 215.124 24.796 213.892 24.796ZM237.562 58.172C234.948 58.172 232.615 57.5373 230.562 56.268C228.508 54.9987 226.903 53.244 225.746 51.004C224.626 48.764 224.066 46.2253 224.066 43.388C224.066 40.5507 224.644 38.0307 225.802 35.828C226.959 33.588 228.564 31.8333 230.618 30.564C232.708 29.2573 235.06 28.604 237.674 28.604C239.802 28.604 241.65 29.0147 243.218 29.836C244.823 30.62 246.092 31.74 247.026 33.196V17.18H253.746V57.5H247.698L247.026 53.412C246.428 54.2333 245.7 55.0173 244.842 55.764C243.983 56.4733 242.956 57.052 241.762 57.5C240.567 57.948 239.167 58.172 237.562 58.172ZM238.962 52.348C240.567 52.348 241.986 51.9747 243.218 51.228C244.45 50.444 245.402 49.38 246.074 48.036C246.746 46.692 247.082 45.1427 247.082 43.388C247.082 41.6333 246.746 40.084 246.074 38.74C245.402 37.396 244.45 36.3507 243.218 35.604C241.986 34.8573 240.567 34.484 238.962 34.484C237.431 34.484 236.05 34.8573 234.818 35.604C233.586 36.3507 232.615 37.396 231.906 38.74C231.234 40.084 230.898 41.6333 230.898 43.388C230.898 45.1427 231.234 46.692 231.906 48.036C232.615 49.38 233.586 50.444 234.818 51.228C236.05 51.9747 237.431 52.348 238.962 52.348ZM279.309 58.172C275.538 58.172 272.197 57.332 269.285 55.652C266.41 53.9347 264.151 51.564 262.509 48.54C260.866 45.4787 260.045 41.932 260.045 37.9C260.045 33.9053 260.866 30.396 262.509 27.372C264.151 24.3107 266.41 21.9213 269.285 20.204C272.197 18.4867 275.538 17.628 279.309 17.628C283.154 17.628 286.533 18.4867 289.445 20.204C292.357 21.9213 294.615 24.3107 296.221 27.372C297.826 30.396 298.629 33.9053 298.629 37.9C298.629 41.932 297.826 45.4787 296.221 48.54C294.615 51.564 292.357 53.9347 289.445 55.652C286.533 57.332 283.154 58.172 279.309 58.172ZM279.365 52.124C281.866 52.124 284.05 51.564 285.917 50.444C287.783 49.2867 289.221 47.644 290.229 45.516C291.237 43.388 291.741 40.8493 291.741 37.9C291.741 34.9507 291.237 32.412 290.229 30.284C289.221 28.156 287.783 26.532 285.917 25.412C284.05 24.2547 281.866 23.676 279.365 23.676C276.863 23.676 274.679 24.2547 272.813 25.412C270.946 26.532 269.49 28.156 268.445 30.284C267.437 32.412 266.933 34.9507 266.933 37.9C266.933 40.8493 267.437 43.388 268.445 45.516C269.49 47.644 270.946 49.2867 272.813 50.444C274.679 51.564 276.863 52.124 279.365 52.124ZM304.971 69.82V29.276H310.963L311.691 33.364C312.288 32.5427 312.997 31.7773 313.819 31.068C314.677 30.3213 315.704 29.724 316.899 29.276C318.131 28.828 319.531 28.604 321.099 28.604C323.749 28.604 326.083 29.2573 328.099 30.564C330.152 31.8707 331.757 33.644 332.915 35.884C334.072 38.0867 334.651 40.6067 334.651 43.444C334.651 46.2813 334.053 48.82 332.859 51.06C331.701 53.2627 330.096 54.9987 328.043 56.268C326.027 57.5373 323.712 58.172 321.099 58.172C318.971 58.172 317.104 57.78 315.499 56.996C313.931 56.1747 312.661 55.0173 311.691 53.524V69.82H304.971ZM319.699 52.348C321.267 52.348 322.667 51.9747 323.899 51.228C325.131 50.4813 326.083 49.436 326.755 48.092C327.464 46.748 327.819 45.1987 327.819 43.444C327.819 41.652 327.464 40.084 326.755 38.74C326.083 37.396 325.131 36.3507 323.899 35.604C322.667 34.8573 321.267 34.484 319.699 34.484C318.093 34.484 316.675 34.8573 315.443 35.604C314.248 36.3507 313.296 37.396 312.587 38.74C311.915 40.084 311.579 41.6333 311.579 43.388C311.579 45.18 311.915 46.748 312.587 48.092C313.296 49.3987 314.248 50.444 315.443 51.228C316.675 51.9747 318.093 52.348 319.699 52.348ZM352.43 58.172C349.929 58.172 347.745 57.78 345.878 56.996C344.049 56.1747 342.593 55.0547 341.51 53.636C340.465 52.18 339.849 50.5187 339.662 48.652H346.382C346.569 49.436 346.905 50.164 347.39 50.836C347.875 51.4707 348.529 51.9747 349.35 52.348C350.209 52.7213 351.217 52.908 352.374 52.908C353.494 52.908 354.409 52.7587 355.118 52.46C355.827 52.124 356.35 51.6947 356.686 51.172C357.022 50.6493 357.19 50.0893 357.19 49.492C357.19 48.596 356.947 47.9053 356.462 47.42C355.977 46.9347 355.267 46.5613 354.334 46.3C353.438 46.0013 352.355 45.7213 351.086 45.46C349.742 45.1987 348.435 44.8813 347.166 44.508C345.934 44.0973 344.814 43.5933 343.806 42.996C342.835 42.3987 342.051 41.6333 341.454 40.7C340.894 39.7667 340.614 38.628 340.614 37.284C340.614 35.6413 341.043 34.1667 341.902 32.86C342.798 31.5533 344.067 30.5267 345.71 29.78C347.39 28.996 349.387 28.604 351.702 28.604C354.987 28.604 357.601 29.3693 359.542 30.9C361.521 32.3933 362.678 34.5027 363.014 37.228H356.63C356.443 36.1827 355.921 35.38 355.062 34.82C354.203 34.2227 353.065 33.924 351.646 33.924C350.19 33.924 349.07 34.204 348.286 34.764C347.539 35.2867 347.166 35.996 347.166 36.892C347.166 37.452 347.39 37.9747 347.838 38.46C348.323 38.908 349.014 39.3 349.91 39.636C350.806 39.9347 351.907 40.2333 353.214 40.532C355.305 40.9427 357.153 41.428 358.758 41.988C360.363 42.548 361.633 43.3693 362.566 44.452C363.499 45.5347 363.966 47.0653 363.966 49.044C364.003 50.836 363.537 52.4227 362.566 53.804C361.633 55.1853 360.307 56.268 358.59 57.052C356.873 57.7987 354.819 58.172 352.43 58.172Z" fill="#F5F5FE"/>
<defs>
<radialGradient id="paint0_radial_3257_142" cx="0" cy="0" r="1" gradientUnits="userSpaceOnUse" gradientTransform="translate(34.9999 38.0001) rotate(-29.6192) scale(45.5957 43.6595)">
<stop offset="0.5" stop-color="#B8B8FF"/>
<stop offset="1" stop-color="#DCDCFF"/>
</radialGradient>
<linearGradient id="paint1_linear_3257_142" x1="26.8006" y1="91.9916" x2="26.8006" y2="3" gradientUnits="userSpaceOnUse">
<stop stop-color="#4844EC"/>
<stop offset="1" stop-color="#766AFF"/>
</linearGradient>
<linearGradient id="paint2_linear_3257_142" x1="89.7233" y1="43.5681" x2="15.0271" y2="43.5681" gradientUnits="userSpaceOnUse">
<stop stop-color="#4844EC"/>
<stop offset="1" stop-color="#766AFF"/>
</linearGradient>
</defs>
</svg>
